<svg width="755" height="272" viewBox="0 0 755 272" fill="none" xmlns="http://www.w3.org/2000/svg">
<g clip-path="url(#clip0)">
<path d="M78.3594 137.312L94.1406 131.688C94.7656 138.458 98.4635 143.146 105.234 145.75C106.484 146.167 107.109 146.375 107.109 146.375V162.469C98.151 162.469 90.5469 158.615 84.2969 150.906C80.4427 146.01 78.4635 141.479 78.3594 137.312ZM79.6094 82.3125C79.6094 70.9583 84.5052 62.4167 94.2969 56.6875C98.8802 54.0833 103.151 52.7292 107.109 52.625V69.0312C103.88 69.5521 101.068 71.4271 98.6719 74.6562C97.1094 76.9479 96.3281 79.3958 96.3281 82C96.3281 87.4167 100.234 91.7396 108.047 94.9688C109.922 95.6979 112.839 96.6875 116.797 97.9375C121.797 99.5 125.286 100.75 127.266 101.688C136.328 106.167 142.214 111.479 144.922 117.625C146.484 121.271 147.266 125.281 147.266 129.656C147.266 138.823 143.724 146.792 136.641 153.562C130.286 159.5 123.151 162.469 115.234 162.469V146.375C119.193 146.167 122.734 144.292 125.859 140.75C128.464 137.625 129.766 134.031 129.766 129.969C129.766 123.615 125.339 118.823 116.484 115.594C114.609 114.865 111.693 113.927 107.734 112.781C103.359 111.531 100.391 110.542 98.8281 109.812C90.0781 105.958 84.4531 101.01 81.9531 94.9688C80.3906 91.3229 79.6094 87.1042 79.6094 82.3125ZM115.234 69.0312V52.625C124.193 52.625 131.693 56.4792 137.734 64.1875C140.964 68.3542 142.682 72.1562 142.891 75.5938L126.797 80.9062C126.38 77.7812 125.182 75.2292 123.203 73.25C121.328 71.2708 119.557 70.0729 117.891 69.6562L115.234 69.0312ZM164.797 138.406V98.875C164.797 93.7708 167.089 88.8229 171.672 84.0312C177.089 78.3021 183.911 75.4375 192.141 75.4375V91.5312C186.724 91.5312 183.234 93.7708 181.672 98.25C181.359 99.1875 181.203 100.125 181.203 101.062V136.219C181.203 140.177 183.026 143.042 186.672 144.812C188.339 145.646 190.214 146.062 192.297 146.062V162.156C182.193 162.156 174.38 158.094 168.859 149.969C166.151 145.906 164.797 142.052 164.797 138.406ZM199.172 162.156V146.062C204.172 146.062 207.453 143.927 209.016 139.656C209.432 138.51 209.641 137.469 209.641 136.531V101.062C209.641 96.6875 207.609 93.7708 203.547 92.3125C202.193 91.7917 200.682 91.5312 199.016 91.5312V75.4375C208.807 75.4375 216.359 79.3958 221.672 87.3125C224.38 91.375 225.734 95.2292 225.734 98.875V138.406C225.734 143.51 223.547 148.51 219.172 153.406C213.859 159.135 207.193 162.052 199.172 162.156ZM242.641 99.0312V82.7812H253.266V75.125C253.266 69.9167 255.193 64.8646 259.047 59.9688C263.839 54.0312 269.984 51.0104 277.484 50.9062H285.453L281.703 67H277.484C273.005 67.9375 270.505 70.6458 269.984 75.125V82.7812H280.922V99.0312H269.984V162H253.266V99.0312H242.641ZM296.734 92V75.9062H307.359V50.9062H323.922V75.9062H334.234V92.1562H323.922L324.078 135.438C324.286 141.688 327.411 144.865 333.453 144.969H336.734L340.484 162H333.141C319.911 162 311.839 156.948 308.922 146.844C307.88 143.198 307.359 138.875 307.359 133.875V92H296.734ZM350.828 75.4375L378.328 162H387.703L393.016 145.281L369.422 75.4375H350.828ZM386.453 107.469L395.047 132.469H397.078L405.984 104.5L424.266 162H433.641L438.953 145.281L415.359 75.4375H396.766L386.453 107.469ZM432.547 107.469L440.984 132.469H443.016L461.297 75.4375H442.703L432.547 107.469ZM476.484 138.406V98.875C476.484 93.7708 478.776 88.8229 483.359 84.0312C488.776 78.3021 495.599 75.4375 503.828 75.4375V91.5312C498.411 91.5312 494.922 93.7708 493.359 98.25C493.047 99.1875 492.891 100.125 492.891 101.062V136.219C492.891 140.177 494.714 143.042 498.359 144.812C500.026 145.646 501.901 146.062 503.984 146.062V162.156C493.88 162.156 486.068 158.094 480.547 149.969C477.839 145.906 476.484 142.052 476.484 138.406ZM510.859 162.156V146.062C515.859 146.062 519.141 143.927 520.703 139.656C521.12 138.51 521.328 137.469 521.328 136.531V101.062C521.328 96.6875 519.297 93.7708 515.234 92.3125C513.88 91.7917 512.37 91.5312 510.703 91.5312V75.4375C520.495 75.4375 528.047 79.3958 533.359 87.3125C536.068 91.375 537.422 95.2292 537.422 98.875V138.406C537.422 143.51 535.234 148.51 530.859 153.406C525.547 159.135 518.88 162.052 510.859 162.156ZM557.922 162V75.4375H574.797V86.2188C577.714 81.6354 582.089 78.3542 587.922 76.375C590.63 75.4375 593.286 74.9688 595.891 74.9688H599.953L596.047 91.375C589.901 91.4792 584.536 94.4479 579.953 100.281C576.516 104.76 574.797 109.396 574.797 114.188V162H557.922ZM616.391 162V50.9062H633.578V162H616.391ZM637.797 118.406L663.891 75.4375H682.953L656.391 118.406L683.109 162H664.203L637.797 118.406Z" fill="#393939"/>
<path d="M43.1504 196.78C43.0104 198.34 42.9404 200.85 42.9404 204.31C42.9404 207.75 43.0204 210.4 43.1804 212.26L44.9204 212.44C44.9604 212.76 44.9804 213.02 44.9804 213.22C44.9804 213.4 44.9504 213.67 44.8904 214.03C44.1704 214.01 43.1304 214 41.7704 214C40.4304 214 39.4504 214.01 38.8304 214.03C38.7704 213.73 38.7404 213.48 38.7404 213.28C38.7404 213.08 38.7604 212.8 38.8004 212.44L40.4504 212.26C40.6104 210.12 40.6904 207.41 40.6904 204.13C40.6904 200.83 40.6004 198.38 40.4204 196.78C39.6404 196.8 38.5604 196.87 37.1804 196.99L37.0904 199.21C36.7704 199.27 36.4704 199.3 36.1904 199.3C35.9104 199.3 35.6504 199.29 35.4104 199.27C35.3504 197.63 35.2604 196.11 35.1404 194.71L35.2904 194.56C36.7704 194.74 39.1404 194.83 42.4004 194.83C45.6604 194.83 47.7004 194.74 48.5204 194.56L48.6704 194.71C48.5304 196.25 48.4404 197.67 48.4004 198.97C48.1604 198.99 47.9004 199 47.6204 199C47.3604 199 47.0604 198.97 46.7204 198.91L46.6304 196.9C45.7904 196.86 44.6304 196.82 43.1504 196.78ZM65.4238 203.5L65.3938 206.41C65.3938 208.53 65.5138 210.48 65.7538 212.26L66.8038 212.35C66.8438 212.67 66.8638 212.95 66.8638 213.19C66.8638 213.41 66.8338 213.69 66.7738 214.03C66.0738 214.01 65.2438 214 64.2838 214C63.3438 214 62.5338 214.01 61.8538 214.03C61.7938 213.73 61.7638 213.47 61.7638 213.25C61.7638 213.01 61.7838 212.71 61.8238 212.35L62.8738 212.26C63.0338 210.1 63.1138 208.18 63.1138 206.5C63.1138 204.82 62.9638 203.58 62.6638 202.78C62.3838 201.98 61.8038 201.58 60.9238 201.58C59.8038 201.58 58.6038 202.22 57.3238 203.5V206.32C57.3238 208.78 57.4138 210.76 57.5938 212.26L58.7038 212.35C58.7438 212.67 58.7638 212.95 58.7638 213.19C58.7638 213.41 58.7338 213.69 58.6738 214.03C57.9738 214.01 57.1638 214 56.2438 214C55.3238 214 54.5238 214.01 53.8438 214.03C53.7838 213.73 53.7538 213.47 53.7538 213.25C53.7538 213.01 53.7738 212.71 53.8138 212.35L54.8638 212.26C55.0438 210.38 55.1338 208.64 55.1338 207.04V202.93C55.1338 199.33 55.0838 196.88 54.9838 195.58L53.7838 195.49C53.7238 195.23 53.6938 194.93 53.6938 194.59C53.6938 194.23 53.7038 193.97 53.7238 193.81C55.5438 193.71 56.8438 193.62 57.6238 193.54L57.7438 193.69C57.4638 196.07 57.3238 198.75 57.3238 201.73C57.9238 201.13 58.6438 200.64 59.4838 200.26C60.3238 199.86 61.1238 199.66 61.8838 199.66C64.2438 199.66 65.4238 200.94 65.4238 203.5ZM77.6699 207.34C76.6899 207.34 75.7799 207.29 74.9399 207.19C74.9799 210.59 76.1099 212.29 78.3299 212.29C79.4499 212.29 80.6899 211.67 82.0499 210.43C82.6299 211.03 82.9999 211.82 83.1599 212.8C81.5199 213.9 79.7799 214.45 77.9399 214.45C76.0999 214.45 74.7299 213.82 73.8299 212.56C72.9299 211.28 72.4799 209.41 72.4799 206.95C72.4799 204.49 72.9799 202.66 73.9799 201.46C74.9999 200.26 76.4399 199.66 78.2999 199.66C79.6799 199.66 80.8199 200.08 81.7199 200.92C82.6199 201.76 83.0699 202.79 83.0699 204.01C83.0899 205.23 82.9899 206.1 82.7699 206.62C81.2699 207.1 79.5699 207.34 77.6699 207.34ZM78.0899 201.34C76.2299 201.34 75.1899 202.71 74.9699 205.45C75.8699 205.55 76.8599 205.6 77.9399 205.6C79.0199 205.6 79.8599 205.5 80.4599 205.3C80.5399 204.8 80.5799 204.43 80.5799 204.19C80.5799 203.31 80.3499 202.62 79.8899 202.12C79.4499 201.6 78.8499 201.34 78.0899 201.34ZM103.609 199.66C105.009 199.66 106.119 199.99 106.939 200.65C107.779 201.31 108.199 202.17 108.199 203.23C108.199 204.27 107.729 204.79 106.789 204.79C106.229 204.79 105.789 204.62 105.469 204.28C105.169 203.92 105.019 203.5 105.019 203.02C105.019 202.54 105.099 202.14 105.259 201.82C104.779 201.44 104.209 201.25 103.549 201.25C102.889 201.25 102.339 201.41 101.899 201.73C101.479 202.05 101.269 202.52 101.269 203.14C101.269 203.76 101.509 204.3 101.989 204.76C102.489 205.22 103.089 205.6 103.789 205.9C104.489 206.18 105.189 206.48 105.889 206.8C106.589 207.1 107.179 207.54 107.659 208.12C108.159 208.68 108.409 209.38 108.409 210.22C108.409 211.52 107.969 212.55 107.089 213.31C106.229 214.07 105.049 214.45 103.549 214.45C102.049 214.45 100.819 214.13 99.8591 213.49C98.9191 212.85 98.4491 212.01 98.4491 210.97V210.85C98.4491 209.77 98.9191 209.23 99.8591 209.23C100.419 209.23 100.849 209.41 101.149 209.77C101.469 210.11 101.629 210.51 101.629 210.97C101.629 211.43 101.579 211.79 101.479 212.05C101.879 212.31 102.509 212.44 103.369 212.44C104.249 212.44 104.909 212.29 105.349 211.99C105.809 211.69 106.039 211.28 106.039 210.76C106.039 210.22 105.789 209.74 105.289 209.32C104.809 208.9 104.219 208.55 103.519 208.27C102.819 207.97 102.119 207.66 101.419 207.34C100.719 207 100.119 206.52 99.6191 205.9C99.1391 205.28 98.8991 204.54 98.8991 203.68C98.8991 202.44 99.3291 201.46 100.189 200.74C101.069 200.02 102.209 199.66 103.609 199.66ZM119.219 207.34C118.239 207.34 117.329 207.29 116.489 207.19C116.529 210.59 117.659 212.29 119.879 212.29C120.999 212.29 122.239 211.67 123.599 210.43C124.179 211.03 124.549 211.82 124.709 212.8C123.069 213.9 121.329 214.45 119.489 214.45C117.649 214.45 116.279 213.82 115.379 212.56C114.479 211.28 114.029 209.41 114.029 206.95C114.029 204.49 114.529 202.66 115.529 201.46C116.549 200.26 117.989 199.66 119.849 199.66C121.229 199.66 122.369 200.08 123.269 200.92C124.169 201.76 124.619 202.79 124.619 204.01C124.639 205.23 124.539 206.1 124.319 206.62C122.819 207.1 121.119 207.34 119.219 207.34ZM119.639 201.34C117.779 201.34 116.739 202.71 116.519 205.45C117.419 205.55 118.409 205.6 119.489 205.6C120.569 205.6 121.409 205.5 122.009 205.3C122.089 204.8 122.129 204.43 122.129 204.19C122.129 203.31 121.899 202.62 121.439 202.12C120.999 201.6 120.399 201.34 119.639 201.34ZM140.854 203.65L140.734 207.97C140.734 209.33 140.814 210.66 140.974 211.96L142.084 212.05C142.124 212.37 142.144 212.67 142.144 212.95C142.144 213.21 142.114 213.49 142.054 213.79C141.474 213.81 140.344 213.91 138.664 214.09C138.524 213.71 138.414 213.24 138.334 212.68C136.774 213.86 135.424 214.45 134.284 214.45C133.164 214.45 132.284 214.09 131.644 213.37C131.024 212.63 130.714 211.59 130.714 210.25C130.714 208.89 131.134 207.82 131.974 207.04C132.834 206.26 133.904 205.87 135.184 205.87C136.484 205.87 137.594 206.11 138.514 206.59C138.534 206.37 138.544 206.01 138.544 205.51C138.544 204.03 138.334 202.97 137.914 202.33C137.514 201.67 136.894 201.34 136.054 201.34C135.214 201.34 134.604 201.5 134.224 201.82C134.384 202.14 134.464 202.54 134.464 203.02C134.464 203.5 134.304 203.92 133.984 204.28C133.684 204.62 133.254 204.79 132.694 204.79C131.754 204.79 131.284 204.24 131.284 203.14C131.284 202.02 131.704 201.16 132.544 200.56C133.384 199.96 134.564 199.66 136.084 199.66C137.604 199.66 138.774 200.02 139.594 200.74C140.434 201.44 140.854 202.41 140.854 203.65ZM138.394 208.48C137.574 207.78 136.694 207.43 135.754 207.43C133.954 207.43 133.054 208.23 133.054 209.83C133.054 211.47 133.764 212.29 135.184 212.29C135.704 212.29 136.254 212.16 136.834 211.9C137.434 211.62 137.904 211.28 138.244 210.88C138.344 209.68 138.394 208.88 138.394 208.48ZM148.524 212.26C148.704 210.26 148.794 208.43 148.794 206.77C148.794 205.09 148.714 203.43 148.554 201.79L147.444 201.7C147.384 201.38 147.354 201.05 147.354 200.71C147.354 200.37 147.364 200.14 147.384 200.02C148.404 200 149.644 199.91 151.104 199.75L151.254 199.9C151.234 200.02 151.174 200.61 151.074 201.67C151.534 201.09 152.064 200.61 152.664 200.23C153.284 199.85 153.884 199.66 154.464 199.66C155.064 199.66 155.584 199.87 156.024 200.29C156.464 200.71 156.684 201.26 156.684 201.94C156.684 203.06 156.214 203.62 155.274 203.62C154.734 203.62 154.304 203.45 153.984 203.11C153.664 202.75 153.504 202.28 153.504 201.7C153.464 201.68 153.394 201.67 153.294 201.67C152.554 201.67 151.794 202.23 151.014 203.35C150.994 203.91 150.984 205.17 150.984 207.13C150.984 209.07 151.074 210.78 151.254 212.26L152.364 212.35C152.404 212.79 152.424 213.1 152.424 213.28C152.424 213.44 152.394 213.69 152.334 214.03C151.774 214.01 150.954 214 149.874 214C148.794 214 148.004 214.01 147.504 214.03C147.444 213.73 147.414 213.45 147.414 213.19C147.414 212.91 147.434 212.63 147.474 212.35L148.524 212.26ZM169.904 204.79C169.344 204.79 168.904 204.62 168.584 204.28C168.284 203.92 168.134 203.49 168.134 202.99C168.134 202.47 168.204 202.08 168.344 201.82C167.904 201.48 167.384 201.31 166.784 201.31C164.664 201.31 163.604 203.19 163.604 206.95C163.604 208.67 163.874 209.99 164.414 210.91C164.954 211.83 165.714 212.29 166.694 212.29C167.694 212.29 168.924 211.67 170.384 210.43C170.964 211.03 171.334 211.82 171.494 212.8C169.814 213.9 168.104 214.45 166.364 214.45C164.624 214.45 163.314 213.82 162.434 212.56C161.574 211.3 161.144 209.44 161.144 206.98C161.144 204.52 161.624 202.69 162.584 201.49C163.544 200.27 164.904 199.66 166.664 199.66C168.044 199.66 169.164 199.99 170.024 200.65C170.884 201.29 171.314 202.14 171.314 203.2C171.314 204.26 170.844 204.79 169.904 204.79ZM188.975 203.5L188.945 206.41C188.945 208.53 189.065 210.48 189.305 212.26L190.355 212.35C190.395 212.67 190.415 212.95 190.415 213.19C190.415 213.41 190.385 213.69 190.325 214.03C189.625 214.01 188.795 214 187.835 214C186.895 214 186.085 214.01 185.405 214.03C185.345 213.73 185.315 213.47 185.315 213.25C185.315 213.01 185.335 212.71 185.375 212.35L186.425 212.26C186.585 210.1 186.665 208.18 186.665 206.5C186.665 204.82 186.515 203.58 186.215 202.78C185.935 201.98 185.355 201.58 184.475 201.58C183.355 201.58 182.155 202.22 180.875 203.5V206.32C180.875 208.78 180.965 210.76 181.145 212.26L182.255 212.35C182.295 212.67 182.315 212.95 182.315 213.19C182.315 213.41 182.285 213.69 182.225 214.03C181.525 214.01 180.715 214 179.795 214C178.875 214 178.075 214.01 177.395 214.03C177.335 213.73 177.305 213.47 177.305 213.25C177.305 213.01 177.325 212.71 177.365 212.35L178.415 212.26C178.595 210.38 178.685 208.64 178.685 207.04V202.93C178.685 199.33 178.635 196.88 178.535 195.58L177.335 195.49C177.275 195.23 177.245 194.93 177.245 194.59C177.245 194.23 177.255 193.97 177.275 193.81C179.095 193.71 180.395 193.62 181.175 193.54L181.295 193.69C181.015 196.07 180.875 198.75 180.875 201.73C181.475 201.13 182.195 200.64 183.035 200.26C183.875 199.86 184.675 199.66 185.435 199.66C187.795 199.66 188.975 200.94 188.975 203.5ZM211.135 207.34C210.155 207.34 209.245 207.29 208.405 207.19C208.445 210.59 209.575 212.29 211.795 212.29C212.915 212.29 214.155 211.67 215.515 210.43C216.095 211.03 216.465 211.82 216.625 212.8C214.985 213.9 213.245 214.45 211.405 214.45C209.565 214.45 208.195 213.82 207.295 212.56C206.395 211.28 205.945 209.41 205.945 206.95C205.945 204.49 206.445 202.66 207.445 201.46C208.465 200.26 209.905 199.66 211.765 199.66C213.145 199.66 214.285 200.08 215.185 200.92C216.085 201.76 216.535 202.79 216.535 204.01C216.555 205.23 216.455 206.1 216.235 206.62C214.735 207.1 213.035 207.34 211.135 207.34ZM211.555 201.34C209.695 201.34 208.655 202.71 208.435 205.45C209.335 205.55 210.325 205.6 211.405 205.6C212.485 205.6 213.325 205.5 213.925 205.3C214.005 204.8 214.045 204.43 214.045 204.19C214.045 203.31 213.815 202.62 213.355 202.12C212.915 201.6 212.315 201.34 211.555 201.34ZM234.42 203.5L234.39 206.41C234.39 208.51 234.51 210.46 234.75 212.26L235.8 212.35C235.84 212.79 235.86 213.1 235.86 213.28C235.86 213.44 235.83 213.69 235.77 214.03C235.21 214.01 234.37 214 233.25 214C232.13 214 231.33 214.01 230.85 214.03C230.79 213.73 230.76 213.45 230.76 213.19C230.76 212.91 230.78 212.63 230.82 212.35L231.87 212.26C232.03 209.92 232.11 207.92 232.11 206.26C232.11 204.58 231.94 203.38 231.6 202.66C231.28 201.94 230.72 201.58 229.92 201.58C228.84 201.58 227.65 202.23 226.35 203.53C226.33 204.05 226.32 205.27 226.32 207.19C226.32 209.09 226.41 210.78 226.59 212.26L227.7 212.35C227.74 212.79 227.76 213.1 227.76 213.28C227.76 213.44 227.73 213.69 227.67 214.03C227.11 214.01 226.29 214 225.21 214C224.13 214 223.34 214.01 222.84 214.03C222.78 213.73 222.75 213.45 222.75 213.19C222.75 212.91 222.77 212.63 222.81 212.35L223.86 212.26C224.04 210.26 224.13 208.43 224.13 206.77C224.13 205.09 224.05 203.43 223.89 201.79L222.78 201.7C222.72 201.36 222.69 201.03 222.69 200.71C222.69 200.37 222.7 200.14 222.72 200.02C223.74 200 224.98 199.91 226.44 199.75L226.59 199.9C226.55 200.14 226.49 200.74 226.41 201.7C227.03 201.08 227.75 200.59 228.57 200.23C229.39 199.85 230.16 199.66 230.88 199.66C233.24 199.66 234.42 200.94 234.42 203.5ZM246.726 199.66C246.966 199.66 247.146 199.67 247.266 199.69C248.526 197.77 249.896 196.81 251.376 196.81C252.676 196.81 253.326 197.44 253.326 198.7C253.326 199.58 252.886 200.02 252.006 200.02C251.146 200.02 250.646 199.57 250.506 198.67C249.926 198.67 249.386 199.1 248.886 199.96C250.826 200.6 251.796 202.2 251.796 204.76C251.796 206.32 251.486 207.62 250.866 208.66C250.166 209.82 248.786 210.4 246.726 210.4C245.866 210.4 245.166 210.3 244.626 210.1C244.206 210.84 243.896 211.65 243.696 212.53C244.036 212.59 244.396 212.62 244.776 212.62C245.156 212.62 245.916 212.55 247.056 212.41C248.196 212.27 249.016 212.2 249.516 212.2C250.556 212.2 251.396 212.46 252.036 212.98C252.676 213.5 252.996 214.3 252.996 215.38C252.996 216.46 252.646 217.4 251.946 218.2C250.726 219.6 248.826 220.3 246.246 220.3C244.506 220.3 243.176 220.08 242.256 219.64C241.336 219.2 240.876 218.38 240.876 217.18C240.876 216.3 241.346 215.39 242.286 214.45C241.906 214.17 241.716 213.78 241.716 213.28C241.716 212.22 242.226 210.92 243.246 209.38C242.186 208.52 241.656 206.98 241.656 204.76C241.656 201.36 243.346 199.66 246.726 199.66ZM244.086 204.79C244.086 207.15 244.966 208.33 246.726 208.33C248.486 208.33 249.366 207.15 249.366 204.79C249.366 202.43 248.486 201.25 246.726 201.25C244.966 201.25 244.086 202.43 244.086 204.79ZM243.306 216.73C243.306 218.01 244.476 218.65 246.816 218.65C247.816 218.65 248.706 218.43 249.486 217.99C250.286 217.55 250.686 216.89 250.686 216.01C250.686 215.03 250.156 214.54 249.096 214.54C248.576 214.54 247.756 214.6 246.636 214.72C245.516 214.86 244.616 214.93 243.936 214.93H243.696C243.436 215.49 243.306 216.09 243.306 216.73ZM259.831 212.26C260.011 210.3 260.101 208.51 260.101 206.89C260.101 205.25 260.021 203.55 259.861 201.79L258.751 201.7C258.691 201.36 258.661 201.04 258.661 200.74C258.661 200.42 258.671 200.18 258.691 200.02C259.851 199.98 261.091 199.89 262.411 199.75L262.561 199.9C262.381 201.08 262.291 203.06 262.291 205.84C262.291 208.62 262.381 210.76 262.561 212.26L263.671 212.35C263.711 212.67 263.731 212.95 263.731 213.19C263.731 213.41 263.701 213.69 263.641 214.03C262.941 214.01 262.131 214 261.211 214C260.291 214 259.491 214.01 258.811 214.03C258.751 213.73 258.721 213.42 258.721 213.1C258.721 212.78 258.741 212.53 258.781 212.35L259.831 212.26ZM262.861 195.61C262.861 196.85 262.221 197.47 260.941 197.47C259.941 197.47 259.441 196.96 259.441 195.94C259.441 194.68 260.081 194.05 261.361 194.05C262.361 194.05 262.861 194.57 262.861 195.61ZM281.271 203.5L281.241 206.41C281.241 208.51 281.361 210.46 281.601 212.26L282.651 212.35C282.691 212.79 282.711 213.1 282.711 213.28C282.711 213.44 282.681 213.69 282.621 214.03C282.061 214.01 281.221 214 280.101 214C278.981 214 278.181 214.01 277.701 214.03C277.641 213.73 277.611 213.45 277.611 213.19C277.611 212.91 277.631 212.63 277.671 212.35L278.721 212.26C278.881 209.92 278.961 207.92 278.961 206.26C278.961 204.58 278.791 203.38 278.451 202.66C278.131 201.94 277.571 201.58 276.771 201.58C275.691 201.58 274.501 202.23 273.201 203.53C273.181 204.05 273.171 205.27 273.171 207.19C273.171 209.09 273.261 210.78 273.441 212.26L274.551 212.35C274.591 212.79 274.611 213.1 274.611 213.28C274.611 213.44 274.581 213.69 274.521 214.03C273.961 214.01 273.141 214 272.061 214C270.981 214 270.191 214.01 269.691 214.03C269.631 213.73 269.601 213.45 269.601 213.19C269.601 212.91 269.621 212.63 269.661 212.35L270.711 212.26C270.891 210.26 270.981 208.43 270.981 206.77C270.981 205.09 270.901 203.43 270.741 201.79L269.631 201.7C269.571 201.36 269.541 201.03 269.541 200.71C269.541 200.37 269.551 200.14 269.571 200.02C270.591 200 271.831 199.91 273.291 199.75L273.441 199.9C273.401 200.14 273.341 200.74 273.261 201.7C273.881 201.08 274.601 200.59 275.421 200.23C276.241 199.85 277.011 199.66 277.731 199.66C280.091 199.66 281.271 200.94 281.271 203.5ZM293.518 207.34C292.538 207.34 291.628 207.29 290.788 207.19C290.828 210.59 291.958 212.29 294.178 212.29C295.298 212.29 296.538 211.67 297.898 210.43C298.478 211.03 298.848 211.82 299.008 212.8C297.368 213.9 295.628 214.45 293.788 214.45C291.948 214.45 290.578 213.82 289.678 212.56C288.778 211.28 288.328 209.41 288.328 206.95C288.328 204.49 288.828 202.66 289.828 201.46C290.848 200.26 292.288 199.66 294.148 199.66C295.528 199.66 296.668 200.08 297.568 200.92C298.468 201.76 298.918 202.79 298.918 204.01C298.938 205.23 298.838 206.1 298.618 206.62C297.118 207.1 295.418 207.34 293.518 207.34ZM293.938 201.34C292.078 201.34 291.038 202.71 290.818 205.45C291.718 205.55 292.708 205.6 293.788 205.6C294.868 205.6 295.708 205.5 296.308 205.3C296.388 204.8 296.428 204.43 296.428 204.19C296.428 203.31 296.198 202.62 295.738 202.12C295.298 201.6 294.698 201.34 293.938 201.34ZM316.427 207.76L316.337 201.76C315.457 201.76 314.887 201.77 314.627 201.79C314.507 201.45 314.447 201.12 314.447 200.8C314.447 200.48 314.467 200.26 314.507 200.14H316.247C316.227 199.96 316.217 199.56 316.217 198.94C316.217 195.48 317.607 193.75 320.387 193.75C321.307 193.75 322.127 193.95 322.847 194.35C323.587 194.75 323.957 195.38 323.957 196.24C323.957 197.36 323.487 197.92 322.547 197.92C322.007 197.92 321.577 197.76 321.257 197.44C320.957 197.12 320.797 196.76 320.777 196.36C320.777 195.96 320.797 195.68 320.837 195.52C320.657 195.44 320.467 195.4 320.267 195.4C319.027 195.4 318.407 196.64 318.407 199.12C318.407 199.62 318.417 199.95 318.437 200.11C319.937 200.09 321.187 200.03 322.187 199.93C322.307 200.19 322.367 200.48 322.367 200.8C322.367 201.12 322.327 201.49 322.247 201.91C321.967 201.89 320.747 201.85 318.587 201.79V204.61L318.617 206.89C318.617 209.07 318.717 210.86 318.917 212.26L319.997 212.35C320.037 212.53 320.057 212.77 320.057 213.07C320.057 213.37 320.027 213.69 319.967 214.03C319.407 214.01 318.587 214 317.507 214C316.427 214 315.637 214.01 315.137 214.03C315.077 213.73 315.047 213.45 315.047 213.19C315.047 212.91 315.067 212.63 315.107 212.35L316.127 212.26C316.327 210.32 316.427 208.82 316.427 207.76ZM327.708 206.89C327.708 202.07 329.588 199.66 333.348 199.66C337.108 199.66 338.988 202.07 338.988 206.89C338.988 209.11 338.638 210.87 337.938 212.17C337.138 213.69 335.608 214.45 333.348 214.45C331.088 214.45 329.558 213.69 328.758 212.17C328.058 210.87 327.708 209.11 327.708 206.89ZM330.168 206.83C330.168 210.47 331.228 212.29 333.348 212.29C335.468 212.29 336.528 210.47 336.528 206.83C336.528 203.17 335.468 201.34 333.348 201.34C331.228 201.34 330.168 203.17 330.168 206.83ZM345.463 212.26C345.643 210.26 345.733 208.43 345.733 206.77C345.733 205.09 345.653 203.43 345.493 201.79L344.383 201.7C344.323 201.38 344.293 201.05 344.293 200.71C344.293 200.37 344.303 200.14 344.323 200.02C345.343 200 346.583 199.91 348.043 199.75L348.193 199.9C348.173 200.02 348.113 200.61 348.013 201.67C348.473 201.09 349.003 200.61 349.603 200.23C350.223 199.85 350.823 199.66 351.403 199.66C352.003 199.66 352.523 199.87 352.963 200.29C353.403 200.71 353.623 201.26 353.623 201.94C353.623 203.06 353.153 203.62 352.213 203.62C351.673 203.62 351.243 203.45 350.923 203.11C350.603 202.75 350.443 202.28 350.443 201.7C350.403 201.68 350.333 201.67 350.233 201.67C349.493 201.67 348.733 202.23 347.953 203.35C347.933 203.91 347.923 205.17 347.923 207.13C347.923 209.07 348.013 210.78 348.193 212.26L349.303 212.35C349.343 212.79 349.363 213.1 349.363 213.28C349.363 213.44 349.333 213.69 349.273 214.03C348.713 214.01 347.893 214 346.813 214C345.733 214 344.943 214.01 344.443 214.03C344.383 213.73 344.353 213.45 344.353 213.19C344.353 212.91 344.373 212.63 344.413 212.35L345.463 212.26ZM372.677 199.66C374.077 199.66 375.187 199.99 376.007 200.65C376.847 201.31 377.267 202.17 377.267 203.23C377.267 204.27 376.797 204.79 375.857 204.79C375.297 204.79 374.857 204.62 374.537 204.28C374.237 203.92 374.087 203.5 374.087 203.02C374.087 202.54 374.167 202.14 374.327 201.82C373.847 201.44 373.277 201.25 372.617 201.25C371.957 201.25 371.407 201.41 370.967 201.73C370.547 202.05 370.337 202.52 370.337 203.14C370.337 203.76 370.577 204.3 371.057 204.76C371.557 205.22 372.157 205.6 372.857 205.9C373.557 206.18 374.257 206.48 374.957 206.8C375.657 207.1 376.247 207.54 376.727 208.12C377.227 208.68 377.477 209.38 377.477 210.22C377.477 211.52 377.037 212.55 376.157 213.31C375.297 214.07 374.117 214.45 372.617 214.45C371.117 214.45 369.887 214.13 368.927 213.49C367.987 212.85 367.517 212.01 367.517 210.97V210.85C367.517 209.77 367.987 209.23 368.927 209.23C369.487 209.23 369.917 209.41 370.217 209.77C370.537 210.11 370.697 210.51 370.697 210.97C370.697 211.43 370.647 211.79 370.547 212.05C370.947 212.31 371.577 212.44 372.437 212.44C373.317 212.44 373.977 212.29 374.417 211.99C374.877 211.69 375.107 211.28 375.107 210.76C375.107 210.22 374.857 209.74 374.357 209.32C373.877 208.9 373.287 208.55 372.587 208.27C371.887 207.97 371.187 207.66 370.487 207.34C369.787 207 369.187 206.52 368.687 205.9C368.207 205.28 367.967 204.54 367.967 203.68C367.967 202.44 368.397 201.46 369.257 200.74C370.137 200.02 371.277 199.66 372.677 199.66ZM383.097 206.89C383.097 202.07 384.977 199.66 388.737 199.66C392.497 199.66 394.377 202.07 394.377 206.89C394.377 209.11 394.027 210.87 393.327 212.17C392.527 213.69 390.997 214.45 388.737 214.45C386.477 214.45 384.947 213.69 384.147 212.17C383.447 210.87 383.097 209.11 383.097 206.89ZM385.557 206.83C385.557 210.47 386.617 212.29 388.737 212.29C390.857 212.29 391.917 210.47 391.917 206.83C391.917 203.17 390.857 201.34 388.737 201.34C386.617 201.34 385.557 203.17 385.557 206.83ZM401.722 207.76L401.632 201.76C400.752 201.76 400.182 201.77 399.922 201.79C399.802 201.45 399.742 201.12 399.742 200.8C399.742 200.48 399.762 200.26 399.802 200.14H401.542C401.522 199.96 401.512 199.56 401.512 198.94C401.512 195.48 402.902 193.75 405.682 193.75C406.602 193.75 407.422 193.95 408.142 194.35C408.882 194.75 409.252 195.38 409.252 196.24C409.252 197.36 408.782 197.92 407.842 197.92C407.302 197.92 406.872 197.76 406.552 197.44C406.252 197.12 406.092 196.76 406.072 196.36C406.072 195.96 406.092 195.68 406.132 195.52C405.952 195.44 405.762 195.4 405.562 195.4C404.322 195.4 403.702 196.64 403.702 199.12C403.702 199.62 403.712 199.95 403.732 200.11C405.232 200.09 406.482 200.03 407.482 199.93C407.602 200.19 407.662 200.48 407.662 200.8C407.662 201.12 407.622 201.49 407.542 201.91C407.262 201.89 406.042 201.85 403.882 201.79V204.61L403.912 206.89C403.912 209.07 404.012 210.86 404.212 212.26L405.292 212.35C405.332 212.53 405.352 212.77 405.352 213.07C405.352 213.37 405.322 213.69 405.262 214.03C404.702 214.01 403.882 214 402.802 214C401.722 214 400.932 214.01 400.432 214.03C400.372 213.73 400.342 213.45 400.342 213.19C400.342 212.91 400.362 212.63 400.402 212.35L401.422 212.26C401.622 210.32 401.722 208.82 401.722 207.76ZM413.903 209.14C413.903 209.14 413.923 206.91 413.963 202.45C413.963 202.15 413.953 201.92 413.933 201.76C413.093 201.76 412.493 201.77 412.133 201.79C412.013 201.47 411.953 201.16 411.953 200.86C411.953 200.54 411.973 200.3 412.013 200.14H413.843L413.693 197.92C414.193 197.76 414.713 197.68 415.253 197.68C415.813 197.68 416.273 197.72 416.633 197.8L416.363 200.11C417.463 200.09 418.573 200.03 419.693 199.93C419.813 200.19 419.873 200.48 419.873 200.8C419.873 201.1 419.833 201.47 419.753 201.91C419.013 201.87 417.843 201.83 416.243 201.79C416.203 202.19 416.183 202.78 416.183 203.56V209.65C416.183 210.17 416.203 210.6 416.243 210.94C416.303 211.26 416.433 211.56 416.633 211.84C416.853 212.1 417.163 212.23 417.563 212.23C418.443 212.23 419.283 211.92 420.083 211.3C420.503 211.9 420.713 212.71 420.713 213.73C419.613 214.21 418.653 214.45 417.833 214.45C417.033 214.45 416.393 214.34 415.913 214.12C415.433 213.92 415.063 213.68 414.803 213.4C414.543 213.1 414.343 212.69 414.203 212.17C414.003 211.43 413.903 210.42 413.903 209.14ZM432.283 201.7C432.883 201.56 433.393 201.49 433.813 201.49C434.253 201.49 434.653 201.52 435.013 201.58C435.413 204.86 435.983 207.89 436.723 210.67H436.843C437.303 209.67 437.753 208.31 438.193 206.59C438.653 204.87 438.983 203.26 439.183 201.76L437.953 201.67C437.913 201.47 437.893 201.21 437.893 200.89C437.893 200.55 437.923 200.25 437.983 199.99C438.583 200.01 439.413 200.02 440.473 200.02C441.553 200.02 442.383 200.01 442.963 199.99C443.023 200.25 443.053 200.53 443.053 200.83C443.053 201.13 443.033 201.41 442.993 201.67L441.973 201.76C439.653 207.72 438.213 211.8 437.653 214C437.133 214.14 436.663 214.21 436.243 214.21C435.843 214.21 435.573 214.2 435.433 214.18C435.213 212.62 434.553 209.75 433.453 205.57H433.333C432.193 209.01 431.373 211.82 430.873 214C430.353 214.14 429.883 214.21 429.463 214.21C429.063 214.21 428.793 214.2 428.653 214.18C428.293 212.56 427.743 210.57 427.003 208.21C426.263 205.83 425.513 203.68 424.753 201.76L423.763 201.67C423.723 201.43 423.703 201.16 423.703 200.86C423.703 200.54 423.733 200.25 423.793 199.99C424.373 200.01 425.243 200.02 426.403 200.02C427.563 200.02 428.443 200.01 429.043 199.99C429.103 200.25 429.133 200.54 429.133 200.86C429.133 201.16 429.113 201.43 429.073 201.67L427.873 201.76C428.153 204.02 428.843 206.99 429.943 210.67H430.063C430.503 209.67 430.953 208.25 431.413 206.41C431.873 204.55 432.163 202.98 432.283 201.7ZM457.828 203.65L457.708 207.97C457.708 209.33 457.788 210.66 457.948 211.96L459.058 212.05C459.098 212.37 459.118 212.67 459.118 212.95C459.118 213.21 459.088 213.49 459.028 213.79C458.448 213.81 457.318 213.91 455.638 214.09C455.498 213.71 455.388 213.24 455.308 212.68C453.748 213.86 452.398 214.45 451.258 214.45C450.138 214.45 449.258 214.09 448.618 213.37C447.998 212.63 447.688 211.59 447.688 210.25C447.688 208.89 448.108 207.82 448.948 207.04C449.808 206.26 450.878 205.87 452.158 205.87C453.458 205.87 454.568 206.11 455.488 206.59C455.508 206.37 455.518 206.01 455.518 205.51C455.518 204.03 455.308 202.97 454.888 202.33C454.488 201.67 453.868 201.34 453.028 201.34C452.188 201.34 451.578 201.5 451.198 201.82C451.358 202.14 451.438 202.54 451.438 203.02C451.438 203.5 451.278 203.92 450.958 204.28C450.658 204.62 450.228 204.79 449.668 204.79C448.728 204.79 448.258 204.24 448.258 203.14C448.258 202.02 448.678 201.16 449.518 200.56C450.358 199.96 451.538 199.66 453.058 199.66C454.578 199.66 455.748 200.02 456.568 200.74C457.408 201.44 457.828 202.41 457.828 203.65ZM455.368 208.48C454.548 207.78 453.668 207.43 452.728 207.43C450.928 207.43 450.028 208.23 450.028 209.83C450.028 211.47 450.738 212.29 452.158 212.29C452.678 212.29 453.228 212.16 453.808 211.9C454.408 211.62 454.878 211.28 455.218 210.88C455.318 209.68 455.368 208.88 455.368 208.48ZM465.498 212.26C465.678 210.26 465.768 208.43 465.768 206.77C465.768 205.09 465.688 203.43 465.528 201.79L464.418 201.7C464.358 201.38 464.328 201.05 464.328 200.71C464.328 200.37 464.338 200.14 464.358 200.02C465.378 200 466.618 199.91 468.078 199.75L468.228 199.9C468.208 200.02 468.148 200.61 468.048 201.67C468.508 201.09 469.038 200.61 469.638 200.23C470.258 199.85 470.858 199.66 471.438 199.66C472.038 199.66 472.558 199.87 472.998 200.29C473.438 200.71 473.658 201.26 473.658 201.94C473.658 203.06 473.188 203.62 472.248 203.62C471.708 203.62 471.278 203.45 470.958 203.11C470.638 202.75 470.478 202.28 470.478 201.7C470.438 201.68 470.368 201.67 470.268 201.67C469.528 201.67 468.768 202.23 467.988 203.35C467.968 203.91 467.958 205.17 467.958 207.13C467.958 209.07 468.048 210.78 468.228 212.26L469.338 212.35C469.378 212.79 469.398 213.1 469.398 213.28C469.398 213.44 469.368 213.69 469.308 214.03C468.748 214.01 467.928 214 466.848 214C465.768 214 464.978 214.01 464.478 214.03C464.418 213.73 464.388 213.45 464.388 213.19C464.388 212.91 464.408 212.63 464.448 212.35L465.498 212.26ZM483.309 207.34C482.329 207.34 481.419 207.29 480.579 207.19C480.619 210.59 481.749 212.29 483.969 212.29C485.089 212.29 486.329 211.67 487.689 210.43C488.269 211.03 488.639 211.82 488.799 212.8C487.159 213.9 485.419 214.45 483.579 214.45C481.739 214.45 480.369 213.82 479.469 212.56C478.569 211.28 478.119 209.41 478.119 206.95C478.119 204.49 478.619 202.66 479.619 201.46C480.639 200.26 482.079 199.66 483.939 199.66C485.319 199.66 486.459 200.08 487.359 200.92C488.259 201.76 488.709 202.79 488.709 204.01C488.729 205.23 488.629 206.1 488.409 206.62C486.909 207.1 485.209 207.34 483.309 207.34ZM483.729 201.34C481.869 201.34 480.829 202.71 480.609 205.45C481.509 205.55 482.499 205.6 483.579 205.6C484.659 205.6 485.499 205.5 486.099 205.3C486.179 204.8 486.219 204.43 486.219 204.19C486.219 203.31 485.989 202.62 485.529 202.12C485.089 201.6 484.489 201.34 483.729 201.34ZM513.328 200.38L513.358 198.49C513.358 197.29 513.318 196.32 513.238 195.58L512.038 195.49C511.978 195.25 511.948 194.94 511.948 194.56C511.948 194.18 511.958 193.93 511.978 193.81C513.758 193.73 515.058 193.64 515.878 193.54L515.998 193.69C515.698 196.31 515.548 199.69 515.548 203.83C515.548 207.95 515.638 210.67 515.818 211.99L516.928 212.05C516.968 212.49 516.988 212.82 516.988 213.04C516.988 213.24 516.958 213.49 516.898 213.79C516.118 213.83 515.028 213.93 513.628 214.09C513.468 213.77 513.348 213.26 513.268 212.56C511.888 213.82 510.488 214.45 509.068 214.45C507.668 214.45 506.588 213.81 505.828 212.53C505.088 211.25 504.718 209.44 504.718 207.1C504.718 204.74 505.188 202.91 506.128 201.61C507.088 200.31 508.458 199.66 510.238 199.66C511.238 199.66 512.268 199.9 513.328 200.38ZM510.268 201.43C508.268 201.43 507.268 203.42 507.268 207.4C507.268 208.9 507.488 210.07 507.928 210.91C508.388 211.73 509.018 212.14 509.818 212.14C510.358 212.14 510.948 211.97 511.588 211.63C512.248 211.29 512.818 210.86 513.298 210.34C513.338 207.86 513.358 205.18 513.358 202.3C512.078 201.72 511.048 201.43 510.268 201.43ZM527.728 207.34C526.748 207.34 525.838 207.29 524.998 207.19C525.038 210.59 526.168 212.29 528.388 212.29C529.508 212.29 530.748 211.67 532.108 210.43C532.688 211.03 533.058 211.82 533.218 212.8C531.578 213.9 529.838 214.45 527.998 214.45C526.158 214.45 524.788 213.82 523.888 212.56C522.988 211.28 522.538 209.41 522.538 206.95C522.538 204.49 523.038 202.66 524.038 201.46C525.058 200.26 526.498 199.66 528.358 199.66C529.738 199.66 530.878 200.08 531.778 200.92C532.678 201.76 533.128 202.79 533.128 204.01C533.148 205.23 533.048 206.1 532.828 206.62C531.328 207.1 529.628 207.34 527.728 207.34ZM528.148 201.34C526.288 201.34 525.248 202.71 525.028 205.45C525.928 205.55 526.918 205.6 527.998 205.6C529.078 205.6 529.918 205.5 530.518 205.3C530.598 204.8 530.638 204.43 530.638 204.19C530.638 203.31 530.408 202.62 529.948 202.12C529.508 201.6 528.908 201.34 528.148 201.34ZM546.094 201.67C546.054 201.47 546.034 201.21 546.034 200.89C546.034 200.55 546.064 200.25 546.124 199.99C546.724 200.01 547.554 200.02 548.614 200.02C549.694 200.02 550.524 200.01 551.104 199.99C551.164 200.25 551.194 200.53 551.194 200.83C551.194 201.13 551.174 201.41 551.134 201.67L550.144 201.76C547.624 207.62 546.074 211.7 545.494 214C544.974 214.14 544.504 214.21 544.084 214.21C543.684 214.21 543.414 214.2 543.274 214.18C542.134 210.14 540.584 206 538.624 201.76L537.634 201.67C537.594 201.43 537.574 201.16 537.574 200.86C537.574 200.54 537.604 200.25 537.664 199.99C538.244 200.01 539.104 200.02 540.244 200.02C541.404 200.02 542.284 200.01 542.884 199.99C542.944 200.25 542.974 200.54 542.974 200.86C542.974 201.16 542.954 201.43 542.914 201.67L541.684 201.76C542.084 204.34 543.004 207.31 544.444 210.67H544.564C545.084 209.67 545.614 208.31 546.154 206.59C546.694 204.85 547.094 203.24 547.354 201.76L546.094 201.67ZM560.887 207.34C559.907 207.34 558.997 207.29 558.157 207.19C558.197 210.59 559.327 212.29 561.547 212.29C562.667 212.29 563.907 211.67 565.267 210.43C565.847 211.03 566.217 211.82 566.377 212.8C564.737 213.9 562.997 214.45 561.157 214.45C559.317 214.45 557.947 213.82 557.047 212.56C556.147 211.28 555.697 209.41 555.697 206.95C555.697 204.49 556.197 202.66 557.197 201.46C558.217 200.26 559.657 199.66 561.517 199.66C562.897 199.66 564.037 200.08 564.937 200.92C565.837 201.76 566.287 202.79 566.287 204.01C566.307 205.23 566.207 206.1 565.987 206.62C564.487 207.1 562.787 207.34 560.887 207.34ZM561.307 201.34C559.447 201.34 558.407 202.71 558.187 205.45C559.087 205.55 560.077 205.6 561.157 205.6C562.237 205.6 563.077 205.5 563.677 205.3C563.757 204.8 563.797 204.43 563.797 204.19C563.797 203.31 563.567 202.62 563.107 202.12C562.667 201.6 562.067 201.34 561.307 201.34ZM573.672 207.04V202.93C573.672 199.33 573.622 196.88 573.522 195.58L572.322 195.49C572.262 195.23 572.232 194.93 572.232 194.59C572.232 194.23 572.242 193.97 572.262 193.81C574.082 193.71 575.382 193.62 576.162 193.54L576.282 193.69C576.002 196.07 575.862 198.63 575.862 201.37V206.32C575.862 208.78 575.952 210.76 576.132 212.26L577.242 212.35C577.282 212.67 577.302 212.95 577.302 213.19C577.302 213.41 577.272 213.69 577.212 214.03C576.512 214.01 575.702 214 574.782 214C573.862 214 573.062 214.01 572.382 214.03C572.322 213.73 572.292 213.47 572.292 213.25C572.292 213.01 572.312 212.71 572.352 212.35L573.402 212.26C573.582 210.38 573.672 208.64 573.672 207.04ZM582.79 206.89C582.79 202.07 584.67 199.66 588.43 199.66C592.19 199.66 594.07 202.07 594.07 206.89C594.07 209.11 593.72 210.87 593.02 212.17C592.22 213.69 590.69 214.45 588.43 214.45C586.17 214.45 584.64 213.69 583.84 212.17C583.14 210.87 582.79 209.11 582.79 206.89ZM585.25 206.83C585.25 210.47 586.31 212.29 588.43 212.29C590.55 212.29 591.61 210.47 591.61 206.83C591.61 203.17 590.55 201.34 588.43 201.34C586.31 201.34 585.25 203.17 585.25 206.83ZM607.505 199.66C610.325 199.66 611.735 202.06 611.735 206.86C611.735 208.7 611.375 210.37 610.655 211.87C610.255 212.67 609.655 213.3 608.855 213.76C608.055 214.22 607.165 214.45 606.185 214.45C605.205 214.45 604.185 214.21 603.125 213.73C603.225 216.23 603.315 217.83 603.395 218.53L604.505 218.62L604.565 219.4C604.565 219.8 604.535 220.1 604.475 220.3C603.995 220.28 603.165 220.27 601.985 220.27C600.825 220.27 600.045 220.28 599.645 220.3C599.585 219.96 599.555 219.66 599.555 219.4C599.555 219.14 599.575 218.88 599.615 218.62L600.725 218.53C600.885 216.35 600.965 213.44 600.965 209.8C600.965 206.14 600.885 203.47 600.725 201.79L599.615 201.7C599.555 201.52 599.525 201.24 599.525 200.86C599.525 200.46 599.535 200.18 599.555 200.02C600.475 200 601.705 199.91 603.245 199.75L603.395 199.9C603.315 200.48 603.265 201.05 603.245 201.61C604.625 200.31 606.045 199.66 607.505 199.66ZM605.915 212.29C608.095 212.29 609.185 210.35 609.185 206.47C609.185 204.11 608.795 202.62 608.015 202C607.655 201.72 607.185 201.58 606.605 201.58C606.025 201.58 605.415 201.77 604.775 202.15C604.135 202.53 603.595 202.99 603.155 203.53C603.115 205.19 603.095 207.88 603.095 211.6C604.255 212.06 605.195 212.29 605.915 212.29ZM622.779 207.34C621.799 207.34 620.889 207.29 620.049 207.19C620.089 210.59 621.219 212.29 623.439 212.29C624.559 212.29 625.799 211.67 627.159 210.43C627.739 211.03 628.109 211.82 628.269 212.8C626.629 213.9 624.889 214.45 623.049 214.45C621.209 214.45 619.839 213.82 618.939 212.56C618.039 211.28 617.589 209.41 617.589 206.95C617.589 204.49 618.089 202.66 619.089 201.46C620.109 200.26 621.549 199.66 623.409 199.66C624.789 199.66 625.929 200.08 626.829 200.92C627.729 201.76 628.179 202.79 628.179 204.01C628.199 205.23 628.099 206.1 627.879 206.62C626.379 207.1 624.679 207.34 622.779 207.34ZM623.199 201.34C621.339 201.34 620.299 202.71 620.079 205.45C620.979 205.55 621.969 205.6 623.049 205.6C624.129 205.6 624.969 205.5 625.569 205.3C625.649 204.8 625.689 204.43 625.689 204.19C625.689 203.31 625.459 202.62 624.999 202.12C624.559 201.6 623.959 201.34 623.199 201.34ZM634.904 212.26C635.084 210.26 635.174 208.43 635.174 206.77C635.174 205.09 635.094 203.43 634.934 201.79L633.824 201.7C633.764 201.38 633.734 201.05 633.734 200.71C633.734 200.37 633.744 200.14 633.764 200.02C634.784 200 636.024 199.91 637.484 199.75L637.634 199.9C637.614 200.02 637.554 200.61 637.454 201.67C637.914 201.09 638.444 200.61 639.044 200.23C639.664 199.85 640.264 199.66 640.844 199.66C641.444 199.66 641.964 199.87 642.404 200.29C642.844 200.71 643.064 201.26 643.064 201.94C643.064 203.06 642.594 203.62 641.654 203.62C641.114 203.62 640.684 203.45 640.364 203.11C640.044 202.75 639.884 202.28 639.884 201.7C639.844 201.68 639.774 201.67 639.674 201.67C638.934 201.67 638.174 202.23 637.394 203.35C637.374 203.91 637.364 205.17 637.364 207.13C637.364 209.07 637.454 210.78 637.634 212.26L638.744 212.35C638.784 212.79 638.804 213.1 638.804 213.28C638.804 213.44 638.774 213.69 638.714 214.03C638.154 214.01 637.334 214 636.254 214C635.174 214 634.384 214.01 633.884 214.03C633.824 213.73 633.794 213.45 633.794 213.19C633.794 212.91 633.814 212.63 633.854 212.35L634.904 212.26ZM661.339 206.32L661.429 214.39C661.429 218.33 660.079 220.3 657.379 220.3C656.219 220.3 655.189 219.98 654.289 219.34C654.289 218.2 654.619 217.37 655.279 216.85C655.499 217.17 655.819 217.45 656.239 217.69C656.659 217.95 657.069 218.08 657.469 218.08C658.589 218.08 659.149 216.68 659.149 213.88V206.92C659.149 205.26 659.069 203.55 658.909 201.79L657.799 201.7C657.739 201.36 657.709 201.04 657.709 200.74C657.709 200.42 657.719 200.18 657.739 200.02C658.899 199.98 660.139 199.89 661.459 199.75L661.609 199.9C661.429 201.08 661.339 203.22 661.339 206.32ZM661.909 195.61C661.909 196.85 661.269 197.47 659.989 197.47C658.989 197.47 658.489 196.96 658.489 195.94C658.489 194.68 659.129 194.05 660.409 194.05C661.409 194.05 661.909 194.57 661.909 195.61ZM668.056 206.89C668.056 202.07 669.936 199.66 673.696 199.66C677.456 199.66 679.336 202.07 679.336 206.89C679.336 209.11 678.986 210.87 678.286 212.17C677.486 213.69 675.956 214.45 673.696 214.45C671.436 214.45 669.906 213.69 669.106 212.17C668.406 210.87 668.056 209.11 668.056 206.89ZM670.516 206.83C670.516 210.47 671.576 212.29 673.696 212.29C675.816 212.29 676.876 210.47 676.876 206.83C676.876 203.17 675.816 201.34 673.696 201.34C671.576 201.34 670.516 203.17 670.516 206.83ZM694.061 205.87C694.061 203.01 693.211 201.58 691.511 201.58C690.291 201.58 689.131 202.23 688.031 203.53V211.6C688.951 212.06 689.921 212.29 690.941 212.29C693.021 212.29 694.061 210.15 694.061 205.87ZM688.031 201.7C689.431 200.34 690.841 199.66 692.261 199.66C693.681 199.66 694.761 200.24 695.501 201.4C696.241 202.56 696.611 204.18 696.611 206.26C696.611 209.08 696.121 211.15 695.141 212.47C694.181 213.79 692.661 214.45 690.581 214.45C689.281 214.45 687.551 214.19 685.391 213.67C685.711 211.71 685.871 208.53 685.871 204.13C685.871 199.73 685.821 196.88 685.721 195.58L684.521 195.49C684.461 195.25 684.431 194.94 684.431 194.56C684.431 194.18 684.441 193.93 684.461 193.81C686.241 193.73 687.541 193.64 688.361 193.54L688.481 193.69C688.201 196.09 688.051 198.76 688.031 201.7ZM707.154 199.66C708.554 199.66 709.664 199.99 710.484 200.65C711.324 201.31 711.744 202.17 711.744 203.23C711.744 204.27 711.274 204.79 710.334 204.79C709.774 204.79 709.334 204.62 709.014 204.28C708.714 203.92 708.564 203.5 708.564 203.02C708.564 202.54 708.644 202.14 708.804 201.82C708.324 201.44 707.754 201.25 707.094 201.25C706.434 201.25 705.884 201.41 705.444 201.73C705.024 202.05 704.814 202.52 704.814 203.14C704.814 203.76 705.054 204.3 705.534 204.76C706.034 205.22 706.634 205.6 707.334 205.9C708.034 206.18 708.734 206.48 709.434 206.8C710.134 207.1 710.724 207.54 711.204 208.12C711.704 208.68 711.954 209.38 711.954 210.22C711.954 211.52 711.514 212.55 710.634 213.31C709.774 214.07 708.594 214.45 707.094 214.45C705.594 214.45 704.364 214.13 703.404 213.49C702.464 212.85 701.994 212.01 701.994 210.97V210.85C701.994 209.77 702.464 209.23 703.404 209.23C703.964 209.23 704.394 209.41 704.694 209.77C705.014 210.11 705.174 210.51 705.174 210.97C705.174 211.43 705.124 211.79 705.024 212.05C705.424 212.31 706.054 212.44 706.914 212.44C707.794 212.44 708.454 212.29 708.894 211.99C709.354 211.69 709.584 211.28 709.584 210.76C709.584 210.22 709.334 209.74 708.834 209.32C708.354 208.9 707.764 208.55 707.064 208.27C706.364 207.97 705.664 207.66 704.964 207.34C704.264 207 703.664 206.52 703.164 205.9C702.684 205.28 702.444 204.54 702.444 203.68C702.444 202.44 702.874 201.46 703.734 200.74C704.614 200.02 705.754 199.66 707.154 199.66ZM722.824 212.35C722.824 212.95 722.644 213.45 722.284 213.85C721.924 214.25 721.374 214.45 720.634 214.45C719.494 214.45 718.924 213.87 718.924 212.71C718.924 211.27 719.654 210.55 721.114 210.55C722.254 210.55 722.824 211.15 722.824 212.35Z" fill="#393939"/>
</g>
<defs>
<clipPath id="clip0">
<rect width="693" height="175" fill="white" transform="translate(31 49)"/>
</clipPath>
</defs>
</svg>
